# xmcd CD database file
#
# Track frame offsets:
#	150
#	8976
#	21609
#	30948
#	42136
#	53525
#	62666
#	73484
#	84308
#	95284
#	105277
#	115331
#	126287
#	134785
#	145519
#	157550
#	169326
#	179107
#	187193
#	198064
#
# Disc length: 2776 seconds
#
# Revision: 1
# Processed by: cddbd v1.5.1PL2 Copyright (c) Steve Scherf et al.
# Submitted via: CDex 1.51
#
DISCID=110ad614
DTITLE=Johnny Cash - The Sun Records Years - Disc 1
DYEAR=2003
DGENRE=Country
TTITLE0=Two Timin' Woman
TTITLE1=Folsom Prison Blues
TTITLE2=Luther Played The Boogie
TTITLE3=Mean Eyed Cat
TTITLE4=Big River
TTITLE5=Blue Train
TTITLE6=Fool's Hall Of Fame
TTITLE7=Wide Open Road
TTITLE8=Cry, Cry, Cry
TTITLE9=Hey! Porter
TTITLE10=Get Rhythm
TTITLE11=I Love You Because
TTITLE12=I Forgot To Remember To Forget
TTITLE13=Train Of Love
TTITLE14=Goodnight Irene
TTITLE15=Doin' My Time
TTITLE16=Rock Island Line
TTITLE17=The Wreck Of The Old '97
TTITLE18=Belshazar
TTITLE19=I Was There When It Happened
EXTD=YEAR: 2003
EXTT0=
EXTT1=
EXTT2=
EXTT3=
EXTT4=
EXTT5=
EXTT6=
EXTT7=
EXTT8=
EXTT9=
EXTT10=
EXTT11=
EXTT12=
EXTT13=
EXTT14=
EXTT15=
EXTT16=
EXTT17=
EXTT18=
EXTT19=
PLAYORDER=
